<svg width="25" height="24" viewBox="0 0 25 24" fill="none" xmlns="http://www.w3.org/2000/svg">
<path d="M23.6667 12C23.6685 13.4489 23.3832 14.8837 22.8273 16.2217C22.2714 17.5597 21.4558 18.7742 20.4277 19.7951C19.4081 20.813 18.1978 21.62 16.8661 22.1699C15.5344 22.7198 14.1074 23.0019 12.6667 23C6.59138 23 1.66668 18.0753 1.66668 12C1.66284 9.17947 2.74626 6.46599 4.69168 4.42376C5.71817 3.34059 6.95488 2.47827 8.32615 1.88957C9.69741 1.30087 11.1744 0.998176 12.6667 1.00001C14.1074 0.998143 15.5344 1.28022 16.8661 1.83013C18.1978 2.38004 19.4081 3.18698 20.4277 4.20486C21.4558 5.22578 22.2714 6.44032 22.8273 7.77829C23.3832 9.11625 23.6685 10.5511 23.6667 12Z" stroke="#5C8374" stroke-width="2" stroke-linecap="round" stroke-linejoin="round"/>
<path d="M23.6667 12C22.0618 12 17.6343 11.395 13.6715 13.1347C9.36669 15.025 6.24984 17.9576 4.89134 19.7808" stroke="#5C8374" stroke-width="2" stroke-linecap="round" stroke-linejoin="round"/>
<path d="M8.54167 1.79971C10.2632 3.38866 14.0197 7.43391 15.4167 11.45C16.8137 15.4661 17.3307 20.404 17.6497 21.8092" stroke="#5C8374" stroke-width="2" stroke-linecap="round" stroke-linejoin="round"/>
<path d="M1.75139 10.625C3.82929 10.7504 9.32983 10.8632 12.8498 9.36003C16.3698 7.85688 19.3987 5.09203 20.4376 4.21478M2.49169 16.1872C3.46096 18.5334 5.20907 20.474 7.44168 21.6822" stroke="#5C8374" stroke-width="2" stroke-linecap="round" stroke-linejoin="round"/>
<path d="M1.66668 12C1.66284 9.17947 2.74626 6.46599 4.69168 4.42376C5.71817 3.34059 6.95488 2.47827 8.32615 1.88957C9.69741 1.30087 11.1744 0.998175 12.6667 1.00001M17.0667 1.91521C18.3194 2.4633 19.4591 3.23974 20.4277 4.20486C21.4558 5.22578 22.2714 6.44031 22.8273 7.77828C23.3832 9.11625 23.6685 10.5511 23.6667 12C23.6667 13.3541 23.4219 14.6515 22.9737 15.85M12.6667 23C14.1074 23.0019 15.5344 22.7198 16.8661 22.1699C18.1978 21.62 19.4081 20.813 20.4277 19.7951" stroke="#5C8374" stroke-width="2" stroke-linecap="round" stroke-linejoin="round"/>
</svg>
